<?xml version="1.0" encoding="utf-8"?>
<!-- Generator: Adobe Illustrator 19.0.0, SVG Export Plug-In . SVG Version: 6.00 Build 0)  -->
<svg version="1.1" id="Layer_1" xmlns="http://www.w3.org/2000/svg" xmlns:xlink="http://www.w3.org/1999/xlink" x="0px" y="0px"
	 viewBox="0 0 498 76" style="enable-background:new 0 0 498 76;" xml:space="preserve">
<style type="text/css">
	.st0{fill:#E5E5E5;}
</style>
<g id="XMLID_67_">
	<path id="XMLID_68_" class="st0" d="M6.7,16.4h11.9l8.6,34.7l9.6-34.7H46l9.6,34.7l8.6-34.7H76L62.3,66H49.4l-8.1-29.3L33.3,66
		H20.4L6.7,16.4z"/>
	<path id="XMLID_70_" class="st0" d="M107.2,58.2H88.8L86.3,66H73.9l16.9-49.6h14.5L122.1,66h-12.4L107.2,58.2z M103.8,47.6L98,29.4
		l-5.8,18.2H103.8z"/>
	<path id="XMLID_73_" class="st0" d="M156.1,27.3h-12.8V66H132V27.3h-12.8V16.4h36.8V27.3z"/>
	<path id="XMLID_75_" class="st0" d="M156.1,41.2c0-14.6,10.8-25.8,25.8-25.8c9,0,16.9,4.5,21.3,11.5l-9.8,5.7
		c-2.2-3.8-6.4-6.1-11.5-6.1c-8.8,0-14.5,5.9-14.5,14.7c0,8.9,5.7,14.7,14.5,14.7c5,0,9.4-2.3,11.5-6.1l9.8,5.7
		c-4.3,7-12.2,11.5-21.3,11.5C166.9,67,156.1,55.8,156.1,41.2z"/>
	<path id="XMLID_77_" class="st0" d="M246.7,16.4V66h-11.3V46.3h-15.6V66h-11.3V16.4h11.3v19h15.6v-19H246.7z"/>
	<path id="XMLID_79_" class="st0" d="M288.5,27.3h-12.8V66h-11.3V27.3h-12.8V16.4h36.8V27.3z"/>
	<path id="XMLID_81_" class="st0" d="M288.5,41.2c0-14.6,11.5-25.8,25.8-25.8s25.8,11.2,25.8,25.8S328.6,67,314.3,67
		S288.5,55.8,288.5,41.2z M328.8,41.2c0-8.9-6.4-14.7-14.5-14.7s-14.5,5.9-14.5,14.7c0,8.9,6.4,14.7,14.5,14.7
		S328.8,50.1,328.8,41.2z"/>
	<path id="XMLID_84_" class="st0" d="M340.8,16.4h11.9l8.6,34.7l9.6-34.7h9.2l9.6,34.7l8.6-34.7h11.9L396.5,66h-12.9l-8.1-29.3
		L367.4,66h-12.9L340.8,16.4z"/>
	<path id="XMLID_86_" class="st0" d="M446.3,55.1V66h-31.2V16.4h30.8v10.9h-19.5v8.2h17.7v10.8h-17.7v8.8H446.3z"/>
	<path id="XMLID_88_" class="st0" d="M469.4,49.7H464V66h-11.3V16.4h19.8c9.4,0,17,7.6,17,17c0,6.1-3.7,11.6-9.1,14.4L490.9,66
		h-12.2L469.4,49.7z M464,39.8h8.5c3.1,0,5.7-2.8,5.7-6.4c0-3.6-2.6-6.4-5.7-6.4H464V39.8z"/>
</g>
</svg>